<svg width="20" height="19" viewBox="0 0 20 19" fill="none" xmlns="http://www.w3.org/2000/svg">
<path d="M9.80047 15.2701V3.06005M9.80047 15.2701C8.43108 20.2304 3.60607 17.4323 4.2581 14.7129M9.80047 15.2701C11.1699 20.2304 16.0599 17.4323 15.4079 14.7129M9.80047 3.06005C9.12266 -0.144089 4.05207 0.706671 4.38862 3.44162M9.80047 3.06005C10.4783 -0.144089 15.6139 0.706669 15.2774 3.44162M5.75789 5.6674C4.83087 4.75052 4.47289 4.12642 4.38862 3.44162M4.38862 3.44162C2.56794 3.27985 -0.290708 6.82174 2.49965 8.91069M4.58435 9.8646C3.68208 9.61318 3.00003 9.2853 2.49965 8.91069M2.49965 8.91069C0.221259 10.7452 1.70143 14.4559 4.2581 14.7129M6.93142 13.7438C5.98905 14.5281 5.06938 14.7944 4.2581 14.7129M15.2774 3.44162C15.1931 4.12641 14.8351 4.75051 13.9081 5.6674M15.2774 3.44162C17.0981 3.27985 19.9567 6.82174 17.1664 8.91069M17.1664 8.91069C16.666 9.2853 15.9839 9.61318 15.0817 9.8646M17.1664 8.91069C19.4448 10.7452 17.9646 14.4559 15.4079 14.7129M15.4079 14.7129C14.5966 14.7944 13.677 14.5281 12.7346 13.7438" stroke="#340569" stroke-width="1.5" stroke-linecap="round"/>
</svg>
