<svg width="22" height="19" viewBox="0 0 22 19" fill="none" xmlns="http://www.w3.org/2000/svg">
<path d="M19.2019 2.50292C18.7377 2.02645 18.1864 1.64848 17.5798 1.39061C16.9731 1.13273 16.3228 1 15.6661 1C15.0094 1 14.3591 1.13273 13.7524 1.39061C13.1457 1.64848 12.5945 2.02645 12.1302 2.50292L11.1667 3.4913L10.2033 2.50292C9.26549 1.54094 7.99362 1.0005 6.66742 1.0005C5.34122 1.0005 4.06935 1.54094 3.13158 2.50292C2.19382 3.46491 1.66699 4.76964 1.66699 6.1301C1.66699 7.49055 2.19382 8.79528 3.13158 9.75727L11.1667 18L19.2019 9.75727C19.6664 9.28102 20.0348 8.71557 20.2862 8.0932C20.5376 7.47084 20.667 6.80377 20.667 6.1301C20.667 5.45642 20.5376 4.78935 20.2862 4.16699C20.0348 3.54463 19.6664 2.97917 19.2019 2.50292Z" stroke="#340569" stroke-width="2" stroke-linecap="round" stroke-linejoin="round"/>
</svg>
