<svg width="69" height="10" viewBox="0 0 69 10" fill="none" xmlns="http://www.w3.org/2000/svg">
<path d="M0.660511 9V0.272727H4.26562C4.91903 0.272727 5.48295 0.390625 5.95739 0.62642C6.43466 0.859375 6.80256 1.1946 7.06108 1.6321C7.3196 2.06676 7.44886 2.58239 7.44886 3.17898C7.44886 3.78409 7.31676 4.2983 7.05256 4.72159C6.78835 5.14205 6.41335 5.46307 5.92756 5.68466C5.44176 5.90341 4.86648 6.01278 4.2017 6.01278H1.92188V4.35085H3.80966C4.12784 4.35085 4.39347 4.30966 4.60653 4.22727C4.82244 4.14205 4.9858 4.0142 5.09659 3.84375C5.20739 3.67045 5.26278 3.44886 5.26278 3.17898C5.26278 2.90909 5.20739 2.68608 5.09659 2.50994C4.9858 2.33097 4.82244 2.19744 4.60653 2.10938C4.39063 2.01847 4.125 1.97301 3.80966 1.97301H2.76989V9H0.660511ZM5.57386 5.01136L7.74716 9H5.44602L3.31534 5.01136H5.57386ZM8.60582 9V0.272727H12.2109C12.8643 0.272727 13.4283 0.400568 13.9027 0.65625C14.38 0.909091 14.7479 1.26278 15.0064 1.71733C15.2649 2.16903 15.3942 2.6946 15.3942 3.29403C15.3942 3.89631 15.2621 4.4233 14.9979 4.875C14.7365 5.32386 14.3629 5.67187 13.8771 5.91903C13.3913 6.16619 12.8146 6.28977 12.147 6.28977H9.92259V4.62784H11.755C12.0732 4.62784 12.3388 4.57244 12.5518 4.46165C12.7678 4.35085 12.9311 4.19602 13.0419 3.99716C13.1527 3.79545 13.2081 3.56108 13.2081 3.29403C13.2081 3.02415 13.1527 2.79119 13.0419 2.59517C12.9311 2.39631 12.7678 2.2429 12.5518 2.13494C12.3359 2.02699 12.0703 1.97301 11.755 1.97301H10.7152V9H8.60582ZM22.1612 3.12358C22.1129 2.9446 22.0419 2.78693 21.9482 2.65057C21.8544 2.51136 21.7393 2.39347 21.603 2.29688C21.4666 2.20028 21.3104 2.12784 21.1342 2.07955C20.9581 2.02841 20.7649 2.00284 20.5547 2.00284C20.1314 2.00284 19.7649 2.10511 19.4553 2.30966C19.1484 2.5142 18.9112 2.8125 18.7436 3.20455C18.576 3.59375 18.4922 4.06676 18.4922 4.62358C18.4922 5.18324 18.5732 5.66051 18.7351 6.0554C18.897 6.45028 19.1314 6.75142 19.4382 6.95881C19.745 7.16619 20.1172 7.26989 20.5547 7.26989C20.9411 7.26989 21.2678 7.20739 21.5348 7.08239C21.8047 6.95455 22.0092 6.77415 22.1484 6.54119C22.2876 6.30824 22.3572 6.03409 22.3572 5.71875L22.7493 5.76562H20.6271V4.22727H24.3899V5.3821C24.3899 6.16335 24.2237 6.83239 23.8913 7.3892C23.5618 7.94602 23.1072 8.37358 22.5277 8.67188C21.951 8.97017 21.2876 9.11932 20.5376 9.11932C19.7053 9.11932 18.9737 8.93892 18.343 8.57812C17.7124 8.21733 17.2209 7.70312 16.8686 7.03551C16.5163 6.36506 16.3402 5.5696 16.3402 4.64915C16.3402 3.93324 16.4467 3.2983 16.6598 2.74432C16.8729 2.1875 17.1697 1.71591 17.5504 1.32955C17.9339 0.943182 18.3771 0.650568 18.88 0.451704C19.3857 0.252841 19.9297 0.153409 20.5121 0.153409C21.0178 0.153409 21.4879 0.225852 21.9226 0.370739C22.3601 0.515625 22.7464 0.72017 23.0817 0.984375C23.4197 1.24858 23.6939 1.5625 23.9041 1.92614C24.1143 2.28977 24.245 2.68892 24.2962 3.12358H22.1612ZM29.3065 0.272727H30.9045L33.6829 7.05682H33.7852L36.5636 0.272727H38.1616V9H36.9087V2.68466H36.8278L34.2539 8.98722H33.2141L30.6403 2.6804H30.5593V9H29.3065V0.272727ZM41.8786 9.14489C41.4638 9.14489 41.0888 9.06818 40.7536 8.91477C40.4183 8.75852 40.1527 8.53267 39.9567 8.23722C39.7635 7.94176 39.6669 7.57955 39.6669 7.15057C39.6669 6.78125 39.7379 6.47727 39.88 6.23864C40.022 6 40.2138 5.81108 40.4553 5.67188C40.6967 5.53267 40.9666 5.42756 41.2649 5.35653C41.5632 5.28551 41.8672 5.23153 42.1768 5.1946C42.5689 5.14915 42.8871 5.11222 43.1314 5.08381C43.3757 5.05256 43.5533 5.00284 43.6641 4.93466C43.7749 4.86648 43.8303 4.75568 43.8303 4.60227V4.57244C43.8303 4.20028 43.7251 3.91193 43.5149 3.70739C43.3075 3.50284 42.9979 3.40057 42.5859 3.40057C42.157 3.40057 41.8189 3.49574 41.5717 3.68608C41.3274 3.87358 41.1584 4.08239 41.0646 4.3125L39.8672 4.03977C40.0092 3.64205 40.2166 3.32102 40.4893 3.0767C40.7649 2.82955 41.0817 2.65057 41.4396 2.53977C41.7976 2.42614 42.174 2.36932 42.5689 2.36932C42.8303 2.36932 43.1072 2.40057 43.3999 2.46307C43.6953 2.52273 43.9709 2.63352 44.2266 2.79545C44.4851 2.95739 44.6967 3.18892 44.8615 3.49006C45.0263 3.78835 45.1087 4.17614 45.1087 4.65341V9H43.8643V8.10511H43.8132C43.7308 8.26989 43.6072 8.43182 43.4425 8.59091C43.2777 8.75 43.0661 8.8821 42.8075 8.98722C42.549 9.09233 42.2393 9.14489 41.8786 9.14489ZM42.1555 8.12216C42.5078 8.12216 42.8089 8.05256 43.0589 7.91335C43.3118 7.77415 43.5036 7.59233 43.6342 7.3679C43.7678 7.14062 43.8345 6.89773 43.8345 6.6392V5.79545C43.7891 5.84091 43.701 5.88352 43.5703 5.9233C43.4425 5.96023 43.2962 5.9929 43.1314 6.02131C42.9666 6.04687 42.8061 6.07102 42.6499 6.09375C42.4936 6.11364 42.3629 6.13068 42.2578 6.14489C42.0107 6.17614 41.7848 6.22869 41.5803 6.30256C41.3786 6.37642 41.2166 6.48295 41.0945 6.62216C40.9751 6.75852 40.9155 6.94034 40.9155 7.16761C40.9155 7.48295 41.032 7.72159 41.2649 7.88352C41.4979 8.04261 41.7947 8.12216 42.1555 8.12216ZM51.7106 4.05256L50.5558 4.2571C50.5075 4.10937 50.4308 3.96875 50.3256 3.83523C50.2234 3.7017 50.0842 3.59233 49.908 3.5071C49.7319 3.42187 49.5117 3.37926 49.2475 3.37926C48.8867 3.37926 48.5856 3.46023 48.3441 3.62216C48.1026 3.78125 47.9819 3.98722 47.9819 4.24006C47.9819 4.45881 48.0629 4.63494 48.2248 4.76847C48.3867 4.90199 48.6481 5.01136 49.0089 5.09659L50.0487 5.33523C50.6509 5.47443 51.0998 5.68892 51.3952 5.97869C51.6907 6.26847 51.8384 6.64489 51.8384 7.10795C51.8384 7.5 51.7248 7.84943 51.4975 8.15625C51.2731 8.46023 50.9592 8.69886 50.5558 8.87216C50.1552 9.04545 49.6907 9.1321 49.1623 9.1321C48.4293 9.1321 47.8313 8.97585 47.3683 8.66335C46.9052 8.34801 46.6211 7.90057 46.516 7.32102L47.7475 7.13352C47.8242 7.45455 47.9819 7.69744 48.2205 7.86222C48.4592 8.02415 48.7702 8.10511 49.1538 8.10511C49.5714 8.10511 49.9052 8.01847 50.1552 7.84517C50.4052 7.66903 50.5302 7.45455 50.5302 7.2017C50.5302 6.99716 50.4535 6.82528 50.3001 6.68608C50.1495 6.54687 49.918 6.44176 49.6055 6.37074L48.4975 6.12784C47.8867 5.98864 47.435 5.76705 47.1424 5.46307C46.8526 5.15909 46.7077 4.77415 46.7077 4.30824C46.7077 3.92187 46.8157 3.58381 47.0316 3.29403C47.2475 3.00426 47.5458 2.77841 47.9265 2.61648C48.3072 2.4517 48.7433 2.36932 49.2347 2.36932C49.9421 2.36932 50.4989 2.52273 50.9052 2.82955C51.3114 3.13352 51.5799 3.54119 51.7106 4.05256ZM56.2947 2.45455V3.47727H52.7195V2.45455H56.2947ZM53.6783 0.886364H54.9524V7.07812C54.9524 7.32528 54.9893 7.51136 55.0632 7.63636C55.1371 7.75852 55.2322 7.84233 55.3487 7.88778C55.468 7.9304 55.5973 7.9517 55.7365 7.9517C55.8388 7.9517 55.9283 7.9446 56.005 7.9304C56.0817 7.91619 56.1413 7.90483 56.1839 7.89631L56.4141 8.94886C56.3402 8.97727 56.2351 9.00568 56.0987 9.03409C55.9624 9.06534 55.7919 9.08239 55.5874 9.08523C55.2521 9.09091 54.9396 9.03125 54.6499 8.90625C54.3601 8.78125 54.1257 8.58807 53.9467 8.3267C53.7678 8.06534 53.6783 7.73722 53.6783 7.34233V0.886364ZM60.4549 9.1321C59.81 9.1321 59.2546 8.99432 58.7887 8.71875C58.3256 8.44034 57.9677 8.04972 57.7148 7.54688C57.4648 7.04119 57.3398 6.44886 57.3398 5.76989C57.3398 5.09943 57.4648 4.50852 57.7148 3.99716C57.9677 3.4858 58.32 3.08665 58.7717 2.79972C59.2262 2.51278 59.7575 2.36932 60.3654 2.36932C60.7347 2.36932 61.0927 2.4304 61.4393 2.55256C61.7859 2.67472 62.0969 2.86648 62.3725 3.12784C62.6481 3.3892 62.8654 3.72869 63.0245 4.14631C63.1836 4.56108 63.2631 5.06534 63.2631 5.65909V6.1108H58.06V5.15625H62.0146C62.0146 4.82102 61.9464 4.52415 61.81 4.26562C61.6737 4.00426 61.4819 3.7983 61.2347 3.64773C60.9904 3.49716 60.7035 3.42188 60.3739 3.42188C60.016 3.42188 59.7035 3.50994 59.4364 3.68608C59.1722 3.85937 58.9677 4.08665 58.8228 4.3679C58.6808 4.64631 58.6097 4.94886 58.6097 5.27557V6.02131C58.6097 6.45881 58.6864 6.83097 58.8398 7.13778C58.9961 7.4446 59.2134 7.67898 59.4918 7.84091C59.7702 8 60.0955 8.07955 60.4677 8.07955C60.7092 8.07955 60.9293 8.04545 61.1282 7.97727C61.3271 7.90625 61.4989 7.80114 61.6438 7.66193C61.7887 7.52273 61.8995 7.35085 61.9762 7.14631L63.1822 7.36364C63.0856 7.71875 62.9123 8.02983 62.6623 8.29688C62.4151 8.56108 62.104 8.76705 61.729 8.91477C61.3569 9.05966 60.9322 9.1321 60.4549 9.1321ZM64.6768 9V2.45455H65.9084V3.49432H65.9766C66.0959 3.14205 66.3061 2.86506 66.6072 2.66335C66.9112 2.45881 67.255 2.35653 67.6385 2.35653C67.718 2.35653 67.8118 2.35937 67.9197 2.36506C68.0305 2.37074 68.1172 2.37784 68.1797 2.38636V3.60511C68.1286 3.59091 68.0376 3.57528 67.907 3.55824C67.7763 3.53835 67.6456 3.52841 67.5149 3.52841C67.2138 3.52841 66.9453 3.59233 66.7095 3.72017C66.4766 3.84517 66.2919 4.01989 66.1555 4.24432C66.0192 4.46591 65.951 4.71875 65.951 5.00284V9H64.6768Z" fill="white"/>
</svg>
